<?xml version="1.0" standalone="no"?>
<!DOCTYPE svg PUBLIC "-//W3C//DTD SVG 20010904//EN"
 "http://www.w3.org/TR/2001/REC-SVG-20010904/DTD/svg10.dtd">
<svg version="1.0" xmlns="http://www.w3.org/2000/svg"
 width="1280.000000pt" height="992.000000pt" viewBox="0 0 1280.000000 992.000000"
 preserveAspectRatio="xMidYMid meet">
<g transform="translate(0.000000,992.000000) scale(0.100000,-0.100000)"
fill="#000000" stroke="none">
<path d="M11603 9149 c-682 -143 -1688 -984 -2713 -2269 -246 -308 -618 -819
-859 -1177 -34 -51 -65 -93 -69 -93 -4 0 -73 36 -152 81 -867 483 -1781 780
-2655 864 -826 79 -1477 -44 -1896 -357 -119 -88 -185 -152 -260 -252 -203
-267 -263 -612 -170 -979 58 -230 184 -445 375 -645 510 -529 1378 -898 2536
-1076 91 -14 190 -28 221 -32 94 -11 94 -13 -6 -115 -139 -141 -355 -339 -519
-476 -714 -598 -1394 -938 -2011 -1004 -147 -16 -461 -6 -633 20 -401 60 -730
208 -948 425 -98 98 -150 179 -180 281 -22 72 -24 233 -5 315 64 273 303 449
665 489 357 40 756 -41 1271 -258 183 -78 207 -82 288 -48 31 14 43 28 71 87
l34 71 -18 67 c-13 48 -27 73 -47 89 -38 31 -345 182 -463 228 -581 226 -1238
304 -1734 204 -436 -88 -764 -325 -885 -639 -87 -225 -80 -505 19 -725 164
-367 650 -707 1245 -874 489 -136 1076 -173 1619 -100 895 119 1820 537 2686
1212 215 168 444 367 666 579 l120 115 380 6 c375 6 489 13 694 43 110 16 158
38 201 93 17 22 19 35 14 91 -9 92 -20 121 -57 151 -63 50 -62 50 -285 39
-311 -14 -556 -13 -550 3 3 7 62 85 133 172 159 199 406 529 588 788 76 108
145 197 152 197 44 0 845 -582 912 -663 11 -12 6 -47 -23 -184 -68 -313 -79
-408 -79 -703 -1 -171 4 -299 12 -360 78 -549 289 -979 649 -1321 178 -169
428 -353 578 -425 208 -101 311 20 357 421 19 171 16 670 -5 825 -85 604 -305
1120 -691 1614 -25 33 -46 65 -46 72 0 13 174 477 358 954 263 682 537 1369
860 2155 559 1360 702 1736 702 1842 0 99 -42 166 -119 192 -52 17 -224 12
-328 -10z m-673 -912 c0 -7 -32 -74 -72 -148 -364 -679 -845 -1928 -1298
-3367 -29 -90 -58 -166 -65 -169 -8 -2 -51 24 -97 60 -46 36 -218 161 -383
279 -165 119 -301 222 -303 230 -2 8 91 167 206 354 673 1094 1197 1859 1623
2368 133 159 364 406 380 406 5 0 9 -6 9 -13z m-5530 -2132 c457 -53 988 -211
1547 -461 265 -118 752 -374 760 -400 7 -20 -539 -764 -792 -1079 -194 -242
-469 -553 -511 -578 -17 -10 -366 25 -599 59 -896 132 -1600 414 -2008 804
-327 311 -425 717 -257 1058 43 86 65 117 138 191 134 137 298 235 518 311
177 61 328 89 624 114 91 8 449 -4 580 -19z m4666 -2738 c148 -208 248 -447
291 -697 25 -143 22 -458 -5 -610 -25 -138 -68 -290 -87 -309 -12 -12 -20 -8
-60 35 -214 229 -307 563 -292 1044 3 102 13 237 21 300 16 115 43 274 51 298
9 26 32 9 81 -61z"/>
</g>
</svg>
